<?xml version="1.0" encoding="UTF-8" standalone="no"?>
<!-- Created with Inkscape (http://www.inkscape.org/) -->

<svg
   version="1.1"
   width="389.0603"
   height="98.232735"
   id="svg3279"
   sodipodi:docname="airplane-front-view-silhouette-3.svg"
   xmlns:inkscape="http://www.inkscape.org/namespaces/inkscape"
   xmlns:sodipodi="http://sodipodi.sourceforge.net/DTD/sodipodi-0.dtd"
   xmlns="http://www.w3.org/2000/svg"
   xmlns:svg="http://www.w3.org/2000/svg"
   xmlns:rdf="http://www.w3.org/1999/02/22-rdf-syntax-ns#"
   xmlns:cc="http://creativecommons.org/ns#"
   xmlns:dc="http://purl.org/dc/elements/1.1/">
  <sodipodi:namedview
     id="namedview885"
     pagecolor="#ffffff"
     bordercolor="#000000"
     borderopacity="0.25"
     inkscape:showpageshadow="2"
     inkscape:pageopacity="0.0"
     inkscape:pagecheckerboard="0"
     inkscape:deskcolor="#d1d1d1"
     showgrid="false" />
  <defs
     id="defs3281">
    <rect
       x="20.244822"
       y="13.182675"
       width="467.04333"
       height="96.045204"
       id="rect941" />
  </defs>
  <metadata
     id="metadata3284">
    <rdf:RDF>
      <cc:Work
         rdf:about="">
        <dc:format>image/svg+xml</dc:format>
        <dc:type
           rdf:resource="http://purl.org/dc/dcmitype/StillImage" />
        <dc:title />
      </cc:Work>
    </rdf:RDF>
  </metadata>
  <g
     transform="matrix(0.58132636,0,0,0.58132636,-30.972247,-72.9555)"
     id="layer1">
    <path
       d="m 264.74314,293.77182 c -0.3521,-0.25742 -0.8221,-1.1272 -1.0446,-1.93285 -0.343,-1.24225 -0.2646,-1.71365 0.5161,-3.10267 0.6335,-1.12723 1.2707,-1.70791 2.0436,-1.8625 1.3007,-0.26012 1.3778,-0.45483 0.449,-1.13395 -0.378,-0.27641 -0.6741,-1.04328 -0.6741,-1.74581 0,-0.72197 -0.1693,-1.14824 -0.3996,-1.00594 -0.2308,0.14269 -0.271,0.039 -0.095,-0.24551 0.6064,-0.98112 -1.001,-1.98858 -3.9556,-2.47926 -1.5936,-0.26465 -3.8986,-0.89461 -5.1221,-1.39992 -1.2236,-0.50531 -2.8616,-1.05254 -3.6403,-1.21607 -0.7786,-0.16353 -1.907,-0.54835 -2.5075,-0.85514 -1.1819,-0.60383 -4.4143,-1.53715 -8.1099,-2.34164 -1.6912,-0.36818 -2.3257,-0.38224 -2.3257,-0.0516 0,0.2501 1.1376,0.70044 2.528,1.00075 1.3903,0.30031 2.6944,0.64012 2.8978,0.75513 0.2034,0.11501 0.9025,0.25101 1.5535,0.30222 1.4988,0.1179 1.791,0.4333 2.1349,2.30486 0.1856,1.01001 0.1285,1.51677 -0.1708,1.51677 -0.2472,0 -0.4495,0.27302 -0.4495,0.60671 0,0.33369 -0.3185,0.60032 -0.7078,0.5925 -0.8783,-0.0176 -5.328,-1.00169 -6.2172,-1.37496 -1.5155,-0.63621 -2.3502,1.74349 -1.6221,4.62495 0.4011,1.5874 1.2666,1.44328 1.2666,-0.21091 0,-1.7635 1.3851,-2.63613 3.0095,-1.89602 0.9577,0.43635 0.9908,0.59792 1.1123,5.42418 0.069,2.73594 0.073,5.16828 0.01,5.4052 -0.064,0.23692 -0.9227,0.47254 -1.909,0.52359 -1.9534,0.10112 -1.8571,0.22999 -2.4094,-3.22622 -0.2216,-1.38673 -0.3311,-1.47626 -2.1021,-1.71901 -2.9372,-0.40258 -2.8887,-0.43161 -3.1808,1.90637 -0.3676,2.94189 -0.5688,3.17039 -2.6595,3.02081 l -1.5995,-0.4885 -0.064,-5.08481 c -0.073,-5.76406 0.2285,-6.06391 2.1284,-6.07532 1.3383,-0.008 2.0022,0.68734 2.0022,2.09706 0,0.62289 0.182,1.13253 0.4044,1.13253 0.2233,0 0.4045,-1.05509 0.4045,-2.35633 0,-2.38413 -0.5957,-3.43286 -2.4269,-4.27306 -0.3336,-0.15311 -1.0617,-0.54157 -1.6179,-0.86326 -1.5389,-0.89015 -2.2274,-0.72849 -3.6116,0.84811 -1.6525,1.88205 -2.3611,1.62616 -1.0086,-0.36421 l 1.0503,-1.54569 -1.1474,0.13137 c -0.8716,0.0998 -1.1811,0.37453 -1.2874,1.14256 -0.077,0.55615 -0.2951,1.20064 -0.4849,1.4322 -0.1898,0.23155 -0.5408,1.29472 -0.7802,2.36258 -0.989,4.41341 -2.116,5.56029 -6.3853,6.49798 -2.1415,0.47035 -11.7182,-0.51276 -13.3941,-1.37499 -2.7581,-1.41895 -5.6963,-5.3388 -5.7415,-7.65968 -0.031,-1.58875 -0.6989,-3.6941 -0.752,-2.37039 -0.016,0.38931 -0.2019,0.70783 -0.4139,0.70783 -0.4366,0 -1.1291,-2.19647 -1.4985,-4.75255 -0.1366,-0.94546 -0.2691,-1.7205 -0.2945,-1.72233 -0.026,-0.002 -5.4152,-0.91189 -11.9774,-2.02236 -6.5622,-1.11047 -12.31711,-2.01904 -12.78871,-2.01904 -0.707,0 -0.9811,0.44354 -1.5621,2.52795 -0.3875,1.39037 -0.8073,2.69844 -0.9328,2.90681 -0.2749,0.45647 -2.059,-4.0622 -2.0885,-5.2898 -0.024,-1.01333 -0.1405,-1.04866 -6.5729,-2.00078 -4.5803,-0.67796 -4.7359,-0.73399 -4.8537,-1.74801 -0.097,-0.83658 -0.4273,-1.12308 -1.6386,-1.4223 -0.8342,-0.20608 -1.5167,-0.61561 -1.5167,-0.91006 0,-0.29445 -0.1365,-0.53667 -0.3034,-0.53826 -0.1668,-0.002 -7.8569,-0.80926 -17.0889,-1.79483 -9.2321,-0.98557 -24.0662,-2.54164 -32.9645,-3.45794 -8.898395,-0.9163 -16.510795,-1.79629 -16.916295,-1.95553 -0.7021,-0.27565 -0.6974,-0.34041 0.098,-1.35095 0.7279,-0.92547 0.7534,-1.09268 0.1987,-1.30554 -0.3499,-0.13428 -1.2304,-0.24414 -1.9566,-0.24414 -2.3289,0 -5.2486,-1.7777 -5.9786,-3.64025 -0.7334,-1.87079 -4.2983,-24.05447 -3.9282,-24.44362 0.1975,-0.20763 0.4388,-0.29784 0.5362,-0.20048 0.097,0.0974 1.1941,5.3636 2.4372,11.70274 1.243,6.33914 2.4796,11.95076 2.7478,12.47028 1.0185,1.97272 1.8079,2.10132 25.373795,4.1339 122.29301,10.54787 140.54581,12.11161 141.37281,12.11161 0.8374,0 0.8719,-0.11509 0.5746,-1.92125 -0.9316,-5.65953 0.033,-12.13589 2.38,-15.98279 0.7825,-1.28252 1.3497,-2.4038 1.2604,-2.49173 -0.089,-0.0879 -4.3487,-0.91078 -9.4653,-1.82855 -10.2215,-1.83346 -10.3336,-1.85346 -28.2628,-5.04563 -6.8687,-1.22291 -12.5869,-2.32192 -12.7072,-2.44224 -0.688,-0.68796 0.1629,-0.59951 20.7464,2.15654 3.3369,0.44679 11.8465,1.5813 18.9102,2.52112 l 12.8431,1.70876 1.5157,-1.20101 c 3.9646,-3.14157 10.3801,-5.80865 13.9724,-5.80865 2.0438,0 2.3138,-0.0982 2.5019,-0.91007 0.983,-4.24298 1.5692,-12.3659 2.8679,-39.73942 0.8753,-18.45094 1.6681,-31.76587 1.9095,-32.07159 0.2743,-0.3474 0.5481,-0.38749 0.816,-0.11951 0.2491,0.24909 0.7307,14.47126 1.2598,37.2039 0.4711,20.24037 0.9435,36.86079 1.0498,36.93426 0.1063,0.0735 1.6923,0.84783 3.5244,1.72079 1.8341,0.87389 4.0068,2.27917 4.8346,3.12691 0.9665,0.98977 1.8715,1.53886 2.5337,1.53733 0.8727,-0.002 15.4578,-1.75069 54.3407,-6.51519 5.0133,-0.6143 7.3292,-0.75375 7.6239,-0.45908 0.2946,0.29468 0.073,0.49463 -0.7291,0.65823 -1.0943,0.22315 -45.7552,7.58813 -54.7449,9.0279 -2.3358,0.3741 -4.3769,0.78467 -4.5359,0.91236 -0.3561,0.28622 0.7615,3.63656 1.4904,4.4676 1.0178,1.16051 1.5364,5.00514 1.3563,10.05588 -0.1469,4.12036 -0.08,4.9096 0.417,4.9096 0.3257,0 20.9941,-1.46251 45.9298,-3.25002 24.9356,-1.78751 62.8407,-4.50499 84.2335,-6.03884 41.3497,-2.96474 40.5969,-2.87402 42.033,-5.06577 0.3569,-0.54462 1.8677,-6.09059 3.3573,-12.32439 1.4897,-6.23379 2.9534,-11.56332 3.2526,-11.84337 0.4484,-0.41979 0.503,-0.34025 0.311,0.45292 -0.1282,0.52917 -1.2654,5.71653 -2.527,11.52747 -2.9672,13.6655 -3.9591,15.35992 -9.3158,15.91278 -1.6599,0.17132 -2.1751,0.3709 -2.0093,0.77837 0.1226,0.30139 0.3283,0.8077 0.4571,1.12512 0.1741,0.42909 -0.215,0.63847 -1.5168,0.81623 -1.6859,0.23021 -49.0235,4.60189 -59.3882,5.48457 -6.1492,0.52367 -6.876,0.66908 -6.876,1.37553 0,0.34611 -0.687,0.65609 -1.8357,0.82835 -1.5957,0.2393 -1.8653,0.42328 -2.0621,1.40758 -0.2252,1.12589 -0.2578,1.13662 -5.7482,1.89492 l -5.5218,0.76262 -0.2511,2.62828 c -0.1381,1.44556 -0.4216,3.05531 -0.63,3.57723 -0.3479,0.87111 -0.4849,0.71917 -1.6701,-1.85238 -0.7102,-1.54074 -1.2913,-3.0288 -1.2913,-3.30681 0,-0.33759 -0.3694,-0.42899 -1.1123,-0.27519 -0.6117,0.12665 -5.9356,0.95837 -11.8308,1.84826 -5.8952,0.88989 -11.2945,1.71612 -11.9985,1.83607 -1.24,0.21127 -1.2953,0.30938 -1.7711,3.13866 -0.7966,4.73723 -0.9358,4.81393 -2.0321,1.11937 l -0.9839,-3.316 -1.6027,0.25141 c -0.8815,0.13828 -1.6363,0.28858 -1.6773,0.33401 -0.041,0.0454 0.2151,1.4228 0.5691,3.06082 0.6041,2.79516 0.5988,3.10456 -0.086,5.03341 -2.0853,5.87143 -4.3719,7.08775 -14.7025,7.82104 -6.8318,0.48493 -9.4529,-1.17988 -11.6223,-7.38202 l -1.2134,-3.46898 c -3.3375,0.18869 -5.3218,0.75297 -7.2264,1.00475 -0.1409,-0.14101 -0.2564,0.047 -0.2564,0.41772 -0.1257,1.57229 -0.24111,3.22183 -0.48001,5.12332 -0.1223,1.00107 0.0562,2.13865 -0.0662,2.52796 -0.1396,0.44421 0.5077,0.5546 0.8649,0.5546 0.5641,0 0.7819,-1.94384 0.9893,-3.8915 0.097,-0.91284 0.2848,-1.01118 1.9278,-1.01118 h 1.8202 l 0.2734,1.82012 c 0.3505,2.33368 0.4076,8.23408 0.088,9.06755 -0.3055,0.79615 -3.7384,0.91176 -3.9848,0.1342 -0.088,-0.27807 -0.279,-1.56358 -0.4241,-2.85668 l -0.2638,-2.35108 -1.1404,0.30743 c -0.8308,0.54435 -0.9335,0.86697 -2.1213,0.37067 -1.2259,-0.51219 -1.6227,-0.6035 -1.6919,0.008 -0.042,0.37302 0.037,1.69043 -0.1348,2.80273 l -0.3134,2.02236 -1.6842,0.12282 -1.6842,0.12282 -0.2596,-2.14518 c -0.1428,-1.17985 -0.2026,-3.7833 -0.1329,-5.78544 l 0.1266,-3.64025 1.5767,-0.1291 c 1.8006,-0.14745 2.2504,0.30093 2.2596,2.25258 0.10305,1.00339 0.1115,1.38803 0.21829,2.11547 -0.1634,0.62474 0.42451,0.82908 0.93191,0.72389 0.4097,-0.0849 0.6297,-0.45284 0.5581,-0.93361 -0.065,-0.4364 -0.1526,-2.15854 -0.195,-3.82699 -0.077,-3.02582 -0.08,-2.81257 -1.1966,-2.81257 -1.09705,0.085 -1.89979,0.43941 -2.8385,0.59939 -0.9454,0.15662 -1.992,0.42413 -2.3257,0.59446 -1.781,0.90916 -3.1255,-1.26761 -1.835,-2.97091 0.3113,-0.41093 0.4728,-0.99016 0.3588,-1.28717 -0.154,-0.40127 0.1599,-0.50591 1.2214,-0.40725 1.3568,0.12609 3.1496,-0.66332 2.6473,-1.16562 -0.1294,-0.12941 -1.2728,-0.0269 -2.541,0.22776 -3.24696,1.24782 -3.10307,1.26728 -6.0029,2.0969 -1.1771,0.33264 -3.1413,0.73229 -4.3649,0.8881 -1.2235,0.15582 -3.6767,0.64178 -5.4516,1.07992 -5.9076,0.40355 -6.9801,0.42824 -9.7161,1.5391 -0.7786,0.3055 -1.4157,0.80395 -1.4157,1.10766 0,0.91861 1.768,3.69089 2.471,3.87475 0.7244,0.18943 1.25,2.08935 1.2149,4.39169 -0.015,1.01901 -0.3353,1.79965 -1.0165,2.48077 -0.88,0.88 -1.3202,0.98809 -3.8419,0.94336 -1.5664,-0.0278 -3.136,-0.26115 -3.4881,-0.51857 z m -27.8696,-14.6582 c -0.121,-0.1959 -0.6612,-0.4405 -1.2003,-0.54356 -0.7033,-0.13443 -0.9213,-0.0338 -0.7717,0.35618 0.1147,0.29896 0.6549,0.54356 1.2004,0.54356 0.5454,0 0.8927,-0.16028 0.7716,-0.35618 z m 65.7981,-3.96222 c 0.5062,-0.29793 0.3389,-0.92532 -0.2023,-0.7586 -0.2781,0.0857 -1.0061,0.26544 -1.6178,0.39949 -0.6118,0.13405 -1.1123,0.43673 -1.1123,0.67263 0,0.39379 2.1147,0.16769 2.9324,-0.31352 z m 7.1485,-1.41368 c 1.1293,-0.26067 2.0532,-0.6247 2.0532,-0.80895 0,-0.42448 -0.034,-0.42328 -3.1015,0.11099 -1.4086,0.2453 -2.5611,0.60932 -2.5611,0.80894 0,0.49167 1.152,0.45625 3.6094,-0.11098 z m -73.5831,-0.29877 c 0,-0.38115 -6.6825,-2.0586 -8.2009,-2.0586 -1.7547,0 -0.016,0.75923 3.5494,1.54971 4.301,0.95361 4.6515,0.99195 4.6515,0.50889 z"
       id="path3040"
       style="fill:#333333" />
  </g>
  <text
     xml:space="preserve"
     id="text939"
     style="font-size:80.6692px;font-family:Consolas;-inkscape-font-specification:Consolas;text-align:center;white-space:pre;shape-inside:url(#rect941);opacity:1;fill:#800000;fill-opacity:1;stroke:#800000;stroke-width:1.002;stroke-dasharray:none;stroke-opacity:1"
     inkscape:label="text939"
     transform="matrix(0.99998503,0,0,1.0023154,-58.050994,-27.083432)"><tspan
       x="54.181239"
       y="83.178302"
       id="tspan2083">SkyRoutes</tspan></text>
</svg>
