<svg xmlns="http://www.w3.org/2000/svg" version="1.1" xmlns:xlink="http://www.w3.org/1999/xlink" xmlns:svgjs="http://svgjs.dev/svgjs" width="1440" height="560" preserveAspectRatio="none" viewBox="0 0 1440 560"><g mask="url(&quot;#SvgjsMask1000&quot;)" fill="none"><rect width="1440" height="560" x="0" y="0" fill="#1e3266"></rect><path d="M1464 560L0 560 L0 339.47Q60.02 279.5, 120 339.52Q173.5 321.02, 192 374.53Q204.75 267.27, 312 280.02Q376.92 272.94, 384 337.86Q424.89 258.75, 504 299.65Q592.63 268.28, 624 356.92Q669.32 282.24, 744 327.55Q798.59 262.14, 864 316.73Q906.38 239.11, 984 281.49Q1025.64 251.13, 1056 292.77Q1147.39 264.16, 1176 355.55Q1204.53 312.08, 1248 340.6Q1258.5 279.1, 1320 289.6Q1364.86 262.46, 1392 307.31Q1434.86 278.17, 1464 321.03z" fill="#182f5d"></path><path d="M1488 560L0 560 L0 354.21Q69.59 303.8, 120 373.4Q192.29 373.69, 192 445.98Q242.73 376.71, 312 427.44Q349.6 345.04, 432 382.64Q456.93 335.57, 504 360.5Q559 343.5, 576 398.5Q627.92 378.43, 648 430.35Q660.25 370.6, 720 382.85Q773.18 316.03, 840 369.21Q893.73 350.94, 912 404.67Q958.92 379.59, 984 426.51Q1027.97 398.48, 1056 442.44Q1097.29 363.73, 1176 405.02Q1248.27 357.29, 1296 429.56Q1305.97 367.53, 1368 377.5Q1419.51 309, 1488 360.51z" fill="#25467d"></path><path d="M1488 560L0 560 L0 484.99Q29.43 442.42, 72 471.85Q82.3 410.15, 144 420.45Q186.55 391, 216 433.55Q295 392.56, 336 471.56Q392.91 456.47, 408 513.38Q432.11 417.49, 528 441.6Q602.63 396.23, 648 470.86Q716.97 419.83, 768 488.79Q788.39 437.18, 840 457.57Q863.77 409.34, 912 433.11Q965.54 414.65, 984 468.2Q1066.27 430.47, 1104 512.74Q1149.54 438.27, 1224 483.81Q1257.89 397.71, 1344 431.6Q1374.41 390.01, 1416 420.42Q1468.7 401.13, 1488 453.83z" fill="#356cb1"></path><path d="M1464 560L0 560 L0 515.76Q63.9 507.66, 72 571.57Q92.56 472.13, 192 492.69Q259.52 440.21, 312 507.73Q379.94 455.67, 432 523.61Q474.81 494.42, 504 537.24Q575.81 489.05, 624 560.85Q625.95 490.8, 696 492.74Q761.66 438.4, 816 504.06Q864.38 480.44, 888 528.82Q960.64 481.46, 1008 554.1Q1059.5 533.6, 1080 585.1Q1090.98 524.08, 1152 535.05Q1178.01 489.05, 1224 515.06Q1317.61 488.66, 1344 582.27Q1386.96 505.23, 1464 548.19z" fill="white"></path></g><defs><mask id="SvgjsMask1000"><rect width="1440" height="560" fill="#ffffff"></rect></mask></defs></svg>