<svg xmlns="http://www.w3.org/2000/svg" version="1.1" xmlns:xlink="http://www.w3.org/1999/xlink" xmlns:svgjs="http://svgjs.dev/svgjs" width="1920" height="200" preserveAspectRatio="none" viewBox="0 0 1920 200"><g mask="url(&quot;#SvgjsMask1942&quot;)" fill="none"><path d="M1984 200L0 200 L0 168.12Q78.84 86.96, 160 165.8Q208.12 117.92, 256 166.03Q301.99 116.02, 352 162.01Q435.49 85.5, 512 168.99Q561.6 122.59, 608 172.19Q681.98 86.17, 768 160.15Q850.05 82.2, 928 164.25Q979.29 119.54, 1024 170.83Q1068.53 119.36, 1120 163.88Q1169.1 116.97, 1216 166.07Q1294.51 84.58, 1376 163.1Q1427.82 118.92, 1472 170.74Q1547.49 86.23, 1632 161.71Q1712.11 81.82, 1792 161.92Q1844.71 118.63, 1888 171.34Q1932.17 119.51, 1984 163.69z" fill="rgba(255, 255, 255, 1)"></path><path d="M1952 200L0 200 L0 172.22Q79.95 92.17, 160 172.11Q245.9 98.01, 320 183.92Q362.13 130.06, 416 172.19Q467 127.19, 512 178.18Q557.44 127.63, 608 173.07Q688.16 93.24, 768 173.4Q821.06 130.47, 864 183.53Q942.89 102.42, 1024 181.31Q1071.95 133.26, 1120 181.21Q1194.52 95.73, 1280 170.25Q1365.96 96.21, 1440 182.17Q1484.47 130.64, 1536 175.11Q1620.43 99.55, 1696 183.98Q1741.12 133.09, 1792 178.21Q1870.43 96.65, 1952 175.08z" fill="rgba(24, 47, 93, 1)"></path><path d="M1952 200L0 200 L0 187.48Q44.61 136.09, 96 180.7Q180.27 104.97, 256 189.24Q300.86 138.09, 352 182.95Q404.98 139.93, 448 192.9Q494.42 143.32, 544 189.74Q590.25 139.99, 640 186.24Q719.38 105.62, 800 184.99Q848 137, 896 185Q977.12 106.12, 1056 187.23Q1135.41 106.64, 1216 186.06Q1267.74 141.8, 1312 193.54Q1385.47 107.01, 1472 180.49Q1556.38 104.87, 1632 189.25Q1708.46 105.71, 1792 182.17Q1877.45 107.62, 1952 193.07z" fill="rgba(37, 70, 125, 1)"></path><path d="M1984 200L0 200 L0 195.62Q77.61 113.23, 160 190.83Q242.3 113.13, 320 195.43Q366.53 145.96, 416 192.49Q496.19 112.69, 576 192.88Q629.3 150.19, 672 203.49Q716.81 152.3, 768 197.1Q818.95 152.05, 864 203Q911.07 154.07, 960 201.14Q1034.89 116.03, 1120 190.92Q1199.99 110.92, 1280 190.91Q1334.04 148.95, 1376 202.99Q1455.51 122.5, 1536 202.01Q1610.31 116.32, 1696 190.63Q1746.25 144.88, 1792 195.14Q1840.03 147.17, 1888 195.2Q1939.14 150.34, 1984 201.48z" fill="#356cb1"></path></g><defs><mask id="SvgjsMask1942"><rect width="1920" height="200" fill="#ffffff"></rect></mask></defs></svg>