<svg xmlns="http://www.w3.org/2000/svg" version="1.1" xmlns:xlink="http://www.w3.org/1999/xlink" xmlns:svgjs="http://svgjs.dev/svgjs" width="1920" height="300" preserveAspectRatio="none" viewBox="0 0 1920 300"><g mask="url(&quot;#SvgjsMask1008&quot;)" fill="none"><path d="M225 126.14C197.99 126.14 159.38 140.78 159.38 150C159.38 158.81 194.83 162.21 225 162.21C231.56 162.21 232.84 156.6 232.84 150C232.84 138.57 234.72 126.14 225 126.14" stroke="rgba(51, 121, 194, 0.58)" stroke-width="2"></path><path d="M1050 193.13C1034.16 194.83 1028.75 209.19 1028.75 225C1028.75 240.3 1034.39 253.42 1050 255.36C1082.52 259.4 1087.3 245.23 1125 236.96C1156.53 230.05 1188.46 230.58 1188.46 225C1188.46 219.44 1156.27 221.89 1125 214.69C1087.04 205.95 1082.28 189.67 1050 193.13" stroke="rgba(51, 121, 194, 0.58)" stroke-width="2"></path><path d="M1350 201.14C1328.3 201.14 1302.27 211.05 1302.27 225C1302.27 240.48 1329.44 260 1350 260C1364.39 260 1372.18 241.48 1372.18 225C1372.18 212.05 1363.25 201.14 1350 201.14" stroke="rgba(51, 121, 194, 0.58)" stroke-width="2"></path><path d="M48.86 75C59.37 44.36 54.39 15.94 75 15.52C104.96 14.9 111.96 45.27 150 72.92C152.87 75.01 156.82 73.76 156.82 75C156.82 76.3 152.38 75.17 150 78C120.84 112.67 122.6 114.62 93.75 150C85.1 160.62 86.45 170 75 170C54 170 33.99 168.68 28.85 150C20.92 121.18 36.3 111.6 48.86 75" stroke="rgba(51, 121, 194, 0.58)" stroke-width="2"></path><path d="M60.94 0C60.94 7.41 21.45 28.26 0 28.26C-9.02 28.26 -9.65 4.48 0 0C20.82 -9.65 60.94 -6.72 60.94 0" stroke="rgba(51, 121, 194, 0.58)" stroke-width="2"></path><path d="M225 48.21C211.53 48.21 199.53 16.43 199.53 0C199.53 -7.67 212.26 0 225 0C239.68 0 254.35 -8.25 254.35 0C254.35 15.86 238.94 48.21 225 48.21" stroke="rgba(51, 121, 194, 0.58)" stroke-width="2"></path><path d="M328.41 75C344.63 40.53 332.36 28.4 350 0C355.65 -9.1 362.5 0 375 0C412.5 0 412.5 0 450 0C469.57 0 482.7 -12.86 489.13 0C501.45 24.64 498.88 41.91 487.5 75C479.32 98.8 473.48 104.35 450 113.79C417.23 126.96 408.92 108.81 375 120.22C355.09 126.92 357.69 134.14 342.34 150C320.19 172.89 320.71 197.73 300 197.73C279.95 197.73 260.82 173.44 260.82 150C260.82 127.7 280.34 128.06 300 106.25C314.14 90.56 319.63 93.65 328.41 75" stroke="rgba(51, 121, 194, 0.58)" stroke-width="2"></path><path d="M615.31 75C619.04 39.14 594.2 20.14 610.23 0C624.04 -17.36 642.62 0 675 0C712.5 0 712.5 0 750 0C787.5 0 787.5 0 825 0C858.93 0 859.28 -1.53 892.86 0C896.78 0.18 896.66 3.41 900 3.41C902.2 3.41 901.38 0.12 903.95 0C938.88 -1.59 939.47 0 975 0C1012.5 0 1012.5 0 1050 0C1087.5 0 1087.5 0 1125 0C1153.3 0 1156.33 -6.84 1181.6 0C1193.83 3.31 1191.98 9.24 1200 20.31C1219.16 46.74 1229.8 44.91 1235.96 75C1243.07 109.75 1237.72 115.01 1226.54 150C1219.74 171.26 1219.27 179.67 1200 187.5C1168.5 200.3 1159.9 200.17 1125 191.25C1086.53 181.42 1087.25 172.27 1053.26 150C1049.75 147.7 1051.62 142.11 1050 142.11C1048.39 142.11 1049.08 146.41 1046.81 150C1022.83 187.86 996.71 187.87 997.5 225C998.31 262.87 1056.18 279.39 1050 300C1044.93 316.89 1012.5 300 975 300C951.88 300 936.54 314.28 928.75 300C916.09 276.78 939.25 261.44 934.09 225C928.63 186.44 922.48 186.47 907.5 150C905.44 144.98 905.16 143.49 900 142.02C863.91 131.71 859.99 123.76 825 126.43C807.76 127.75 811.27 139.71 795.54 150C773.77 164.24 774.61 168.29 750 175.5C714.34 185.96 708.9 171.92 675 185.34C646.4 196.67 633.68 198.82 625 225C614.67 256.15 645.4 274.78 636.99 300C632.9 312.28 618.49 300 600 300C578.9 300 562.11 313.26 557.81 300C549.96 275.76 580.24 261 575.7 225C570.78 186 532.68 182.33 538.89 150C544.83 119.05 571.7 126.21 600 98.44C609.91 88.71 613.92 88.36 615.31 75" stroke="rgba(51, 121, 194, 0.58)" stroke-width="2"></path><path d="M975 45C959.61 45 947.73 60.48 947.73 75C947.73 88.52 959.88 101.09 975 101.09C995.46 101.09 1018.9 88.74 1018.9 75C1018.9 60.69 995.19 45 975 45" stroke="rgba(51, 121, 194, 0.58)" stroke-width="2"></path><path d="M1317.54 75C1322.23 53.66 1334.23 57.87 1350 39.92C1367.18 20.37 1362.59 11.1 1383.45 0C1400.09 -8.86 1404.22 0 1425 0C1444.22 0 1463.44 -9.61 1463.44 0C1463.44 16.02 1446.38 27.72 1425 51.25C1412.31 65.22 1395.31 62.06 1395.31 75C1395.31 89.77 1408.49 92.72 1425 106.67C1452.88 130.22 1461.86 123.01 1484.09 150C1499.36 168.54 1482.6 194.51 1500 197.73C1528.05 202.93 1539.83 185.55 1575 166.84C1584.7 161.68 1589.73 158.74 1589.73 150C1589.73 140.26 1581.21 140.66 1575 129.88C1559.6 103.16 1551.21 104.26 1546.52 75C1540.8 39.32 1543.01 29.38 1554.17 0C1557.25 -8.12 1564.59 0 1575 0C1612.5 0 1612.5 0 1650 0C1687.5 0 1687.5 0 1725 0C1755.24 0 1756.92 -4.63 1785.48 0C1794.42 1.45 1791.92 12.16 1800 12.16C1812.42 12.16 1812.4 2.28 1826.47 0C1849.9 -3.8 1850.74 0 1875 0C1912.5 0 1931.25 -18.75 1950 0C1968.75 18.75 1950 37.5 1950 75C1950 112.5 1950 112.5 1950 150C1950 165.2 1960.73 174.45 1950 180.41C1923.23 195.28 1907.19 177.24 1875 191.67C1857.45 199.54 1865.06 210.53 1850.51 225C1827.56 247.82 1825.35 245.74 1800 266.25C1779 283.24 1781.14 289.5 1757.81 300C1743.64 306.38 1741.4 300 1725 300C1687.5 300 1687.5 300 1650 300C1633.39 300 1630.68 307.03 1616.79 300C1593.18 288.04 1599.73 273.65 1575 262.01C1541.33 246.15 1536.52 241.67 1500 245C1461.52 248.51 1454.73 281.54 1425 275.68C1404.03 271.54 1415.27 247.89 1398.59 225C1377.77 196.42 1374.84 198.33 1350 172.73C1338.45 160.83 1330.77 164.93 1325.81 150C1314.54 116.06 1310.14 108.7 1317.54 75" stroke="rgba(51, 121, 194, 0.58)" stroke-width="2"></path><path d="M1725 40.76C1710.63 40.76 1696.88 56.79 1696.88 75C1696.88 97.77 1710.55 122.73 1725 122.73C1739.75 122.73 1755.29 97.66 1755.29 75C1755.29 56.68 1739.83 40.76 1725 40.76" stroke="rgba(51, 121, 194, 0.58)" stroke-width="2"></path><path d="M0 168.75C8.09 168.75 24.94 194.86 30.41 225C36.85 260.49 35.36 271.51 23.81 300C20.16 309.01 2.87 309.04 0 300C-9.04 271.54 0 262.5 0 225C0 196.88 -7.12 168.75 0 168.75" stroke="rgba(51, 121, 194, 0.58)" stroke-width="2"></path><path d="M116.25 225C116.25 209.9 129.35 196.5 150 192.86C183.72 186.91 189.5 194.58 225 205.81C240.3 210.65 251.61 213.87 251.61 225C251.61 238.75 242.79 251.1 225 255.56C191.99 263.83 184.8 260.25 150 250.47C130.43 244.97 116.25 238.7 116.25 225" stroke="rgba(51, 121, 194, 0.58)" stroke-width="2"></path><path d="M797.6 225C815.71 205.23 808.92 177.5 825 177.5C843.58 177.5 861.44 197.36 866.91 225C873.57 258.61 865.2 271.48 849.26 300C844.24 308.98 837.13 300 825 300C787.5 300 787.5 300 750 300C730.76 300 711.51 308.28 711.51 300C711.51 287.97 729 277.68 750 259.38C772.04 240.18 778.21 246.17 797.6 225" stroke="rgba(51, 121, 194, 0.58)" stroke-width="2"></path><path d="M1725 187.5C1714.56 187.5 1703.57 207.04 1703.57 225C1703.57 239.42 1714.51 252.27 1725 252.27C1735.23 252.27 1745 239.35 1745 225C1745 206.97 1735.27 187.5 1725 187.5" stroke="rgba(51, 121, 194, 0.58)" stroke-width="2"></path><path d="M269.44 300C269.44 292.42 281.5 278.68 300 273.39C334.28 263.59 338.89 263.4 375 269.81C413.89 276.71 450 292.17 450 300C450 307.26 412.5 300 375 300C337.5 300 337.5 300 300 300C284.72 300 269.44 305.72 269.44 300" stroke="rgba(51, 121, 194, 0.58)" stroke-width="2"></path><path d="M1050 300C1050 290.57 1085.91 277.25 1125 264.13C1160.91 252.07 1162.22 254.86 1200 249.64C1237.22 244.5 1241.77 232.1 1275 243.4C1315.85 257.28 1348.17 284.2 1348.17 300C1348.17 312.5 1311.59 300 1275 300C1237.5 300 1237.5 300 1200 300C1162.5 300 1162.5 300 1125 300C1087.5 300 1050 308.51 1050 300" stroke="rgba(51, 121, 194, 0.58)" stroke-width="2"></path><path d="M1875 300C1875 292.63 1922.33 271.48 1950 271.48C1959.83 271.48 1960.33 296.07 1950 300C1922.83 310.33 1875 306.89 1875 300" stroke="rgba(51, 121, 194, 0.58)" stroke-width="2"></path><path d="M2.34 0C2.34 0.29 0.82 1.09 0 1.09C-0.35 1.09 -0.37 0.17 0 0C0.8 -0.37 2.34 -0.26 2.34 0" stroke="rgba(51, 121, 194, 0.58)" stroke-width="2"></path><path d="M356.82 75C356.82 54.68 363.29 51.25 375 30.56C384.51 13.75 382.96 6.64 399.26 0C420.46 -8.64 424.63 0 450 0C459.38 0 467.08 -7.5 468.75 0C475.42 30 473.77 40.05 466.67 75C464.4 86.17 461.1 90.1 450 92.24C415.27 98.93 409.82 99.09 375 92.65C363.23 90.47 356.82 85.72 356.82 75" stroke="rgba(51, 121, 194, 0.58)" stroke-width="2"></path><path d="M653.57 75C666.13 49.64 661.37 46.91 675 22.5C682.31 9.41 682.03 4.03 695.45 0C719.53 -7.22 722.72 0 750 0C777.28 0 804.55 -9.7 804.55 0C804.55 12.52 776.7 21.56 750 44.44C732.93 59.06 721.67 55.28 717 75C709.17 108.06 737.44 123.69 725 150C716.44 168.09 700.19 163.79 675 163.79C643.61 163.79 616.44 169.07 611.84 150C605.73 124.68 634.55 113.39 653.57 75" stroke="rgba(51, 121, 194, 0.58)" stroke-width="2"></path><path d="M829.17 75C829.17 60.91 869.02 46.02 900 46.02C914.1 46.02 919.32 60.66 919.32 75C919.32 88.71 913.75 102.13 900 102.13C868.68 102.13 829.17 88.96 829.17 75" stroke="rgba(51, 121, 194, 0.58)" stroke-width="2"></path><path d="M975 13.75C963.25 13.75 953.29 3.73 953.29 0C953.29 -3.15 964.14 0 975 0C996.71 0 1018.42 -3.36 1018.42 0C1018.42 3.52 995.82 13.75 975 13.75" stroke="rgba(51, 121, 194, 0.58)" stroke-width="2"></path><path d="M1070 75C1065.62 38.35 1059.42 22.73 1076.09 0C1086.92 -14.77 1100.55 0 1125 0C1135.61 0 1138.37 -6.22 1146.23 0C1175.87 23.47 1174.04 28.98 1200 59.38C1206.06 66.48 1210.27 66.1 1210.27 75C1210.27 105.16 1207.09 106.94 1200 137.5C1198.39 144.44 1199.24 147.42 1192.86 150C1161.74 162.57 1157.74 167.81 1125 167.81C1108.32 167.81 1102.6 164.48 1094.02 150C1075.1 118.08 1074.58 113.35 1070 75" stroke="rgba(51, 121, 194, 0.58)" stroke-width="2"></path><path d="M1345.52 75C1345.52 71.87 1347.56 70.16 1350 70.16C1352.92 70.16 1356.25 71.39 1356.25 75C1356.25 90.48 1352.69 108.33 1350 108.33C1347.33 108.33 1345.52 90.96 1345.52 75" stroke="rgba(51, 121, 194, 0.58)" stroke-width="2"></path><path d="M1425 20C1417.08 20 1408.78 6.14 1408.78 0C1408.78 -3.86 1416.89 0 1425 0C1432.5 0 1440 -3.75 1440 0C1440 6.25 1432.69 20 1425 20" stroke="rgba(51, 121, 194, 0.58)" stroke-width="2"></path><path d="M1570.25 75C1570.25 62.85 1564.97 54.49 1575 50C1604.85 36.63 1620.6 30.98 1650 39.29C1664.8 43.48 1656.15 57.36 1663.39 75C1678.87 112.72 1696.55 112.92 1695.45 150C1694.32 187.92 1659.04 187.46 1658.93 225C1658.82 262.46 1697.9 275.66 1695 300C1693.43 313.16 1672.5 300 1650 300C1646.78 300 1646 302.02 1643.57 300C1608.5 270.85 1611.33 265.68 1575 237.66C1562.71 228.18 1546.32 232.7 1546.32 225C1546.32 216.42 1562.59 217.21 1575 205.1C1601.03 179.71 1623.21 178.6 1623.21 150C1623.21 118.12 1598.51 117.44 1575 84.15C1572.03 79.94 1570.25 79.92 1570.25 75" stroke="rgba(51, 121, 194, 0.58)" stroke-width="2"></path><path d="M1791.35 75C1793.65 67.97 1793.41 62.84 1800 62.84C1822.73 62.84 1840.62 57.28 1850 75C1863.69 100.86 1855.16 114.22 1846.15 150C1836.28 189.22 1831.6 189.35 1812.24 225C1808.52 231.85 1806.22 235 1800 235C1793.44 235 1789.22 232.6 1786.67 225C1774.94 190.1 1770.27 187.24 1771.43 150C1772.61 112.24 1779.37 111.55 1791.35 75" stroke="rgba(51, 121, 194, 0.58)" stroke-width="2"></path><path d="M1886.84 75C1889.46 36.6 1898.95 28.24 1922.73 0C1930.53 -9.26 1946.36 -10 1950 0C1960 27.5 1950 37.5 1950 75C1950 112.5 1950 112.5 1950 150C1950 152.53 1952.22 155.07 1950 155.07C1933.47 155.07 1922.7 162.94 1912.5 150C1891.12 122.9 1884.34 111.6 1886.84 75" stroke="rgba(51, 121, 194, 0.58)" stroke-width="2"></path><path d="M288.81 150C288.81 143.63 294.28 137.5 300 137.5C305.93 137.5 312.1 143.62 312.1 150C312.1 156.69 305.92 163.64 300 163.64C294.27 163.64 288.81 156.7 288.81 150" stroke="rgba(51, 121, 194, 0.58)" stroke-width="2"></path><path d="M945 150C945 135.71 959.84 128.26 975 128.26C990.8 128.26 1006.91 135.47 1006.91 150C1006.91 174.12 990.59 205.56 975 205.56C959.64 205.56 945 174.36 945 150" stroke="rgba(51, 121, 194, 0.58)" stroke-width="2"></path><path d="M1412.5 150C1412.5 144.55 1418.96 148.33 1425 148.33C1426.35 148.33 1427.27 148.61 1427.27 150C1427.27 186.95 1428.67 225 1425 225C1421.28 225 1412.5 182.88 1412.5 150" stroke="rgba(51, 121, 194, 0.58)" stroke-width="2"></path><path d="M352.5 300C352.5 298.52 363.94 294.16 375 294.16C382.45 294.16 389.52 298.49 389.52 300C389.52 301.41 382.26 300 375 300C363.75 300 352.5 301.44 352.5 300" stroke="rgba(51, 121, 194, 0.58)" stroke-width="2"></path><path d="M587.11 300C587.11 273.54 593.94 236.54 600 236.54C606.03 236.54 611.3 273 611.3 300C611.3 304.73 605.65 300 600 300C593.56 300 587.11 305.27 587.11 300" stroke="rgba(51, 121, 194, 0.58)" stroke-width="2"></path><path d="M736.18 300C736.18 295.68 741.45 285.42 750 285.42C767.11 285.42 787.5 296.23 787.5 300C787.5 303.52 768.75 300 750 300C743.09 300 736.18 302.97 736.18 300" stroke="rgba(51, 121, 194, 0.58)" stroke-width="2"></path><path d="M960 300C960 281.81 965.51 252.63 975 252.63C985.17 252.63 999.32 283.74 999.32 300C999.32 307.43 987.16 300 975 300C967.5 300 960 305.49 960 300" stroke="rgba(51, 121, 194, 0.58)" stroke-width="2"></path><path d="M1106.82 300C1106.82 297.71 1115.28 293.76 1125 291.3C1161.87 281.97 1162.15 279.59 1200 276.43C1237.15 273.33 1239.97 270.71 1275 278.77C1291.19 282.5 1302.44 294.07 1302.44 300C1302.44 304.69 1288.72 300 1275 300C1237.5 300 1237.5 300 1200 300C1162.5 300 1162.5 300 1125 300C1115.91 300 1106.82 302.06 1106.82 300" stroke="rgba(51, 121, 194, 0.58)" stroke-width="2"></path><path d="M1944.44 300C1944.44 299.45 1947.95 297.89 1950 297.89C1950.73 297.89 1950.76 299.71 1950 300C1947.98 300.76 1944.44 300.51 1944.44 300" stroke="rgba(51, 121, 194, 0.58)" stroke-width="2"></path></g><defs><mask id="SvgjsMask1008"><rect width="1920" height="300" fill="#ffffff"></rect></mask></defs></svg>